<svg width="18" height="18" viewBox="0 0 18 18" fill="none" xmlns="http://www.w3.org/2000/svg">
<path d="M17.3039 7.97274L13.7883 11.0063L14.8594 15.5431C14.9185 15.7893 14.9033 16.0476 14.8157 16.2852C14.728 16.5229 14.572 16.7292 14.3672 16.8782C14.1623 17.0272 13.918 17.1121 13.6649 17.1222C13.4118 17.1324 13.1614 17.0673 12.9453 16.9352L9.00001 14.5071L5.05236 16.9352C4.83628 17.0666 4.58619 17.131 4.33356 17.1205C4.08093 17.11 3.83706 17.0249 3.63267 16.8761C3.42828 16.7272 3.27249 16.5212 3.18494 16.284C3.09738 16.0468 3.08197 15.789 3.14064 15.5431L4.21564 11.0063L0.700013 7.97274C0.508839 7.80752 0.370579 7.58963 0.302499 7.34629C0.234419 7.10296 0.239536 6.84496 0.317212 6.60452C0.394887 6.36407 0.541679 6.15184 0.739254 5.99432C0.936829 5.83681 1.17643 5.74099 1.42814 5.71884L6.03751 5.34696L7.81564 1.04384C7.91188 0.809319 8.07569 0.608718 8.28624 0.467538C8.49679 0.326358 8.74456 0.250977 8.99806 0.250977C9.25156 0.250977 9.49933 0.326358 9.70988 0.467538C9.92043 0.608718 10.0842 0.809319 10.1805 1.04384L11.9578 5.34696L16.5672 5.71884C16.8194 5.74017 17.0597 5.83545 17.258 5.99275C17.4563 6.15005 17.6038 6.36236 17.6819 6.6031C17.7601 6.84383 17.7655 7.10228 17.6974 7.34606C17.6293 7.58984 17.4908 7.80811 17.2992 7.97352L17.3039 7.97274Z" fill="#F7C0D7"/>
</svg>
